# xmcd
#
# Track frame offsets:
#	150
#	19006
#	33510
#	51108
#	69662
#	87323
#	104361
#	125070
#	136889
#	158828
#	176087
#	190316
#
# Disc length: 2779 seconds
# Revision: 0
# Processed by: cddbd v1.5.2PL0 Copyright (c) Steve Scherf et al.
# Submitted via: dBpowerAMP V12.0
#
DISCID=a60ad90c
DTITLE=Amy Gallatin - Sweet Gatherings
DYEAR=1900
DGENRE=Country
TTITLE0=Matthew
TTITLE1=I Will Always Wait For You
TTITLE2=Geraldine And Ruthie Mae
TTITLE3=West Texas Wind
TTITLE4=One More Day
TTITLE5=Train To Avalon
TTITLE6=This House Of Memories
TTITLE7=Appaloosa
TTITLE8=Edgar Griffin
TTITLE9=Goin' Back To Texas
TTITLE10=Late Night Radio
TTITLE11=Time To Learn
EXTD=
EXTT0=
EXTT1=
EXTT2=
EXTT3=
EXTT4=
EXTT5=
EXTT6=
EXTT7=
EXTT8=
EXTT9=
EXTT10=
EXTT11=
PLAYORDER=
